<svg fill="#1A1A1A" xmlns="http://www.w3.org/2000/svg" xmlns:xlink="http://www.w3.org/1999/xlink" version="1.1" x="0px" y="0px" viewBox="0 0 64 64" enable-background="new 0 0 64 64" xml:space="preserve"><g display="none"><rect x="-229.016" y="-91.958" display="inline" fill="#1A1A1A" width="378" height="386"></rect></g><g display="none"><g display="inline"><polygon fill="none" stroke="#1A1A1A" stroke-width="4" stroke-miterlimit="10" points="7.304,17.742 32,3.484 56.696,17.742     56.696,46.258 32,60.516 7.304,46.258   "></polygon><path fill="none" stroke="#1A1A1A" stroke-width="4" stroke-miterlimit="10" d="M19.49,39.222L32,46.446l12.511-7.224V24.777    L32,17.553l-12.51,7.224V39.222z"></path><path fill="none" stroke="#1A1A1A" stroke-width="4" stroke-miterlimit="10" d="M32,37.064c-2.882,0-5.225-2.344-5.225-5.224    s2.344-5.224,5.225-5.224c2.881,0,5.224,2.344,5.224,5.224S34.881,37.064,32,37.064z"></path></g></g><g><path d="M42.511,38.068V25.931L32,19.863l-10.51,6.068v12.137L32,44.136L42.511,38.068z M27.965,31.839   c0-2.223,1.81-4.033,4.035-4.033s4.034,1.809,4.034,4.033c0,2.224-1.809,4.034-4.034,4.034S27.965,34.064,27.965,31.839z"></path><path d="M58.696,47.413V16.588L32,1.174L5.304,16.588v30.825L32,62.826L58.696,47.413z M17.49,23.623L32,15.244l14.511,8.379   v16.754L32,48.756l-14.51-8.379V23.623z"></path></g></svg>